<svg xmlns="http://www.w3.org/2000/svg" xmlns:xlink="http://www.w3.org/1999/xlink" x="0" y="0" width="280" height="207" style="
        width:280px;
        height:207px;
        background: #FFF;
        fill: none;
">
        
        
        <svg xmlns="http://www.w3.org/2000/svg" class="role-diagram-draw-area" style="overflow: visible;"><g class="shapes-region" style="stroke: black; fill: none;"><g class="grouped-shape"><g class="composite-shape"><path class="real" d=" M77,113.34 C77,80.95 105.32,54.69 140.25,54.69 C175.18,54.69 203.5,80.95 203.5,113.34 C203.5,145.74 175.18,172 140.25,172 C105.32,172 77,145.74 77,113.34 Z" style="stroke-width: 1; stroke: rgb(0, 0, 0); fill: none; fill-opacity: 1;"/></g><g class="composite-shape"><path class="real" d=" M132.23,42.69 C132.23,39.84 136.27,37.53 141.25,37.53 C146.23,37.53 150.27,39.84 150.27,42.69 C150.27,45.54 146.23,47.84 141.25,47.84 C136.27,47.84 132.23,45.54 132.23,42.69 Z" style="stroke-width: 1; stroke: rgb(0, 0, 0); fill: rgb(0, 0, 0); fill-opacity: 1;"/></g><g class="composite-shape"><path class="real" d=" M187.7,169.93 C186.14,167.55 188.26,163.41 192.43,160.68 C196.6,157.96 201.25,157.68 202.8,160.07 C204.36,162.45 202.24,166.59 198.07,169.32 C193.9,172.04 189.25,172.32 187.7,169.93 Z" style="stroke-width: 1; stroke: rgb(0, 0, 0); fill: rgb(0, 0, 0); fill-opacity: 1;"/></g><g class="composite-shape"><path class="real" d=" M64.24,96.19 C61.87,94.61 62.19,89.97 64.96,85.82 C67.73,81.68 71.9,79.6 74.26,81.18 C76.63,82.77 76.31,87.41 73.54,91.55 C70.77,95.7 66.6,97.77 64.24,96.19 Z" style="stroke-width: 1; stroke: rgb(0, 0, 0); fill: rgb(0, 0, 0); fill-opacity: 1;"/></g><g class="composite-shape"><path class="real" d=" M206.38,81.54 C208.95,80.31 212.77,82.97 214.91,87.48 C217.05,91.98 216.69,96.62 214.12,97.84 C211.55,99.06 207.73,96.4 205.59,91.9 C203.45,87.4 203.81,82.76 206.38,81.54 Z" style="stroke-width: 1; stroke: rgb(0, 0, 0); fill: rgb(0, 0, 0); fill-opacity: 1;"/></g><g class="composite-shape"><path class="real" d=" M85.18,165.65 C86.46,163.1 91.1,162.85 95.56,165.08 C100.01,167.31 102.59,171.18 101.32,173.73 C100.04,176.27 95.4,176.53 90.94,174.3 C86.49,172.07 83.91,168.19 85.18,165.65 Z" style="stroke-width: 1; stroke: rgb(0, 0, 0); fill: rgb(0, 0, 0); fill-opacity: 1;"/></g></g><g/></g><g/><g/><g/></svg>
        <svg xmlns="http://www.w3.org/2000/svg" xmlns:xlink="http://www.w3.org/1999/xlink" width="278" height="205" style="width:278px;height:205px;font-family:Asana-Math, Asana;background:#FFF;"><g><g><g><text x="53.9921875" y="71" style="white-space:pre;stroke:none;fill:rgb(0,0,0);fill-opacity:1;font-size:15px;font-family:Arial, Helvetica, sans-serif;font-weight:400;font-style:normal;dominant-baseline:text-before-edge;text-decoration:none solid rgb(0, 0, 0);">B</text></g></g></g><g><g><g><text x="84" y="176" style="white-space:pre;stroke:none;fill:rgb(0,0,0);fill-opacity:1;font-size:15px;font-family:Arial, Helvetica, sans-serif;font-weight:400;font-style:normal;dominant-baseline:text-before-edge;text-decoration:none solid rgb(0, 0, 0);">C</text></g></g></g><g><g><g><text x="202.0625" y="172.3125" style="white-space:pre;stroke:none;fill:rgb(0,0,0);fill-opacity:1;font-size:15px;font-family:Arial, Helvetica, sans-serif;font-weight:400;font-style:normal;dominant-baseline:text-before-edge;text-decoration:none solid rgb(0, 0, 0);">D</text></g></g></g><g><g><g><text x="218.9921875" y="70" style="white-space:pre;stroke:none;fill:rgb(0,0,0);fill-opacity:1;font-size:15px;font-family:Arial, Helvetica, sans-serif;font-weight:400;font-style:normal;dominant-baseline:text-before-edge;text-decoration:none solid rgb(0, 0, 0);">E</text></g></g></g><g><g><g><text x="138.9921875" y="14" style="white-space:pre;stroke:none;fill:rgb(0,0,0);fill-opacity:1;font-size:15px;font-family:Arial, Helvetica, sans-serif;font-weight:400;font-style:normal;dominant-baseline:text-before-edge;text-decoration:none solid rgb(0, 0, 0);">A</text></g></g></g></svg>
</svg>
