<svg xmlns="http://www.w3.org/2000/svg" xmlns:xlink="http://www.w3.org/1999/xlink" x="0" y="0" width="280" height="207" style="
        width:280px;
        height:207px;
        background: #FFF;
        fill: none;
">
        
        
        <svg xmlns="http://www.w3.org/2000/svg" class="role-diagram-draw-area" style="overflow: visible;"><g class="shapes-region" style="stroke: black; fill: none;"><g class="grouped-shape"><g class="composite-shape"><path class="real" d=" M82,117.34 C82,84.95 110.32,58.69 145.25,58.69 C180.18,58.69 208.5,84.95 208.5,117.34 C208.5,149.74 180.18,176 145.25,176 C110.32,176 82,149.74 82,117.34 Z" style="stroke-width: 1; stroke: rgb(0, 0, 0); fill: none; fill-opacity: 1;"/></g><g class="composite-shape"><path class="real" d=" M137.23,46.69 C137.23,43.84 141.27,41.53 146.25,41.53 C151.23,41.53 155.27,43.84 155.27,46.69 C155.27,49.54 151.23,51.84 146.25,51.84 C141.27,51.84 137.23,49.54 137.23,46.69 Z" style="stroke-width: 1; stroke: rgb(0, 0, 0); fill: rgb(0, 0, 0); fill-opacity: 1;"/></g><g class="composite-shape"><path class="real" d=" M192.7,173.93 C191.14,171.55 193.26,167.41 197.43,164.68 C201.6,161.96 206.25,161.68 207.8,164.07 C209.36,166.45 207.24,170.59 203.07,173.32 C198.9,176.04 194.25,176.32 192.7,173.93 Z" style="stroke-width: 1; stroke: rgb(0, 0, 0); fill: rgb(0, 0, 0); fill-opacity: 1;"/></g><g class="composite-shape"><path class="real" d=" M69.24,100.19 C66.87,98.61 67.19,93.97 69.96,89.82 C72.73,85.68 76.9,83.6 79.26,85.18 C81.63,86.77 81.31,91.41 78.54,95.55 C75.77,99.7 71.6,101.77 69.24,100.19 Z" style="stroke-width: 1; stroke: rgb(0, 0, 0); fill: rgb(0, 0, 0); fill-opacity: 1;"/></g><g class="composite-shape"><path class="real" d=" M211.38,85.54 C213.95,84.31 217.77,86.97 219.91,91.48 C222.05,95.98 221.69,100.62 219.12,101.84 C216.55,103.06 212.73,100.4 210.59,95.9 C208.45,91.4 208.81,86.76 211.38,85.54 Z" style="stroke-width: 1; stroke: rgb(0, 0, 0); fill: rgb(0, 0, 0); fill-opacity: 1;"/></g><g class="composite-shape"><path class="real" d=" M90.18,169.65 C91.46,167.1 96.1,166.85 100.56,169.08 C105.01,171.31 107.59,175.18 106.32,177.73 C105.04,180.27 100.4,180.53 95.94,178.3 C91.49,176.07 88.91,172.19 90.18,169.65 Z" style="stroke-width: 1; stroke: rgb(0, 0, 0); fill: rgb(0, 0, 0); fill-opacity: 1;"/></g></g><g/></g><g/><g/><g/></svg>
        <svg xmlns="http://www.w3.org/2000/svg" xmlns:xlink="http://www.w3.org/1999/xlink" width="278" height="205" style="width:278px;height:205px;font-family:Asana-Math, Asana;background:#FFF;"><g><g><g><text x="58.9921875" y="75" style="white-space:pre;stroke:none;fill:rgb(0,0,0);fill-opacity:1;font-size:15px;font-family:Arial, Helvetica, sans-serif;font-weight:400;font-style:normal;dominant-baseline:text-before-edge;text-decoration:none solid rgb(0, 0, 0);">A</text></g></g></g><g><g><g><text x="88.9921875" y="180" style="white-space:pre;stroke:none;fill:rgb(0,0,0);fill-opacity:1;font-size:15px;font-family:Arial, Helvetica, sans-serif;font-weight:400;font-style:normal;dominant-baseline:text-before-edge;text-decoration:none solid rgb(0, 0, 0);">B</text></g></g></g><g><g><g><text x="207.0625" y="176.3125" style="white-space:pre;stroke:none;fill:rgb(0,0,0);fill-opacity:1;font-size:15px;font-family:Arial, Helvetica, sans-serif;font-weight:400;font-style:normal;dominant-baseline:text-before-edge;text-decoration:none solid rgb(0, 0, 0);">C</text></g></g></g><g><g><g><text x="224" y="74" style="white-space:pre;stroke:none;fill:rgb(0,0,0);fill-opacity:1;font-size:15px;font-family:Arial, Helvetica, sans-serif;font-weight:400;font-style:normal;dominant-baseline:text-before-edge;text-decoration:none solid rgb(0, 0, 0);">D</text></g></g></g><g><g><g><text x="143.9921875" y="19" style="white-space:pre;stroke:none;fill:rgb(0,0,0);fill-opacity:1;font-size:15px;font-family:Arial, Helvetica, sans-serif;font-weight:400;font-style:normal;dominant-baseline:text-before-edge;text-decoration:none solid rgb(0, 0, 0);">E</text></g></g></g></svg>
</svg>
